<svg xmlns="http://www.w3.org/2000/svg" width="44" height="44" viewBox="0 0 44 44" fill="none">
  <path d="M36.235 23.2941V22.7941H35.735V23.2941H36.235ZM36.235 27.8475L35.8841 28.2037C36.0277 28.3451 36.2422 28.3866 36.4281 28.3087C36.614 28.2309 36.735 28.0491 36.735 27.8475H36.235ZM31.6132 23.2941L31.9641 22.9379C31.8705 22.8458 31.7445 22.7941 31.6132 22.7941V23.2941ZM41.9115 20.5621C41.9115 20.286 41.6876 20.0621 41.4115 20.0621C41.1353 20.0621 40.9115 20.286 40.9115 20.5621H41.9115ZM40.9115 15.3377C40.9115 15.6138 41.1353 15.8377 41.4115 15.8377C41.6876 15.8377 41.9115 15.6138 41.9115 15.3377H40.9115ZM31.0585 22.7941C30.7824 22.7941 30.5585 23.018 30.5585 23.2941C30.5585 23.5703 30.7824 23.7941 31.0585 23.7941V22.7941ZM16.3232 14.2353C16.3232 14.5114 16.5471 14.7353 16.8232 14.7353C17.0994 14.7353 17.3232 14.5114 17.3232 14.2353H16.3232ZM18.672 5.67648H39.5627V4.67648H18.672V5.67648ZM39.5627 22.7941H36.235V23.7941H39.5627V22.7941ZM35.735 23.2941V27.8475H36.735V23.2941H35.735ZM40.9115 21.4728C40.9115 22.1955 40.3147 22.7941 39.5627 22.7941V23.7941C40.8528 23.7941 41.9115 22.7618 41.9115 21.4728H40.9115ZM39.5627 5.67648C40.3147 5.67648 40.9115 6.27508 40.9115 6.99783H41.9115C41.9115 5.70878 40.8528 4.67648 39.5627 4.67648V5.67648ZM18.672 4.67648C17.3819 4.67648 16.3232 5.70878 16.3232 6.99783H17.3232C17.3232 6.27508 17.92 5.67648 18.672 5.67648V4.67648ZM36.5859 27.4913L31.9641 22.9379L31.2623 23.6503L35.8841 28.2037L36.5859 27.4913ZM40.9115 20.5621V21.4728H41.9115V20.5621H40.9115ZM40.9115 6.99783V15.3377H41.9115V6.99783H40.9115ZM31.6132 22.7941H31.0585V23.7941H31.6132V22.7941ZM17.3232 14.2353V6.99783H16.3232V14.2353H17.3232Z" fill="white"/>
  <path d="M7.76499 36.2417V35.7417H8.26499V36.2417H7.76499ZM7.76499 40.795L8.1159 41.1512C7.97232 41.2927 7.75785 41.3341 7.57193 41.2563C7.38601 41.1784 7.26499 40.9966 7.26499 40.795H7.76499ZM12.3868 36.2417L12.0359 35.8855C12.1295 35.7933 12.2555 35.7417 12.3868 35.7417V36.2417ZM23.2944 36.7417C23.0183 36.7417 22.7944 36.5178 22.7944 36.2417C22.7944 35.9655 23.0183 35.7417 23.2944 35.7417V36.7417ZM18.1179 35.7417C18.3941 35.7417 18.6179 35.9655 18.6179 36.2417C18.6179 36.5178 18.3941 36.7417 18.1179 36.7417V35.7417ZM25.328 18.6176H4.43726V17.6176H25.328V18.6176ZM4.43726 35.7417H7.76499V36.7417H4.43726V35.7417ZM8.26499 36.2417V40.795H7.26499V36.2417H8.26499ZM27.6768 34.4203C27.6768 35.7094 26.6181 36.7417 25.328 36.7417V35.7417C26.08 35.7417 26.6768 35.1431 26.6768 34.4203H27.6768ZM3.08852 34.4203C3.08852 35.1431 3.68531 35.7417 4.43726 35.7417V36.7417C3.14715 36.7417 2.08852 35.7094 2.08852 34.4203H3.08852ZM4.43726 18.6176C3.68531 18.6176 3.08852 19.2162 3.08852 19.939H2.08852C2.08852 18.6499 3.14715 17.6176 4.43726 17.6176V18.6176ZM25.328 17.6176C26.6181 17.6176 27.6768 18.6499 27.6768 19.939H26.6768C26.6768 19.2162 26.08 18.6176 25.328 18.6176V17.6176ZM7.41409 40.4389L12.0359 35.8855L12.7377 36.5978L8.1159 41.1512L7.41409 40.4389ZM26.6768 34.4203V19.939H27.6768V34.4203H26.6768ZM3.08852 19.939V34.4203H2.08852V19.939H3.08852ZM23.2944 35.7417H25.328V36.7417H23.2944V35.7417ZM12.3868 35.7417H18.1179V36.7417H12.3868V35.7417Z" fill="white"/>
  <path d="M6.4707 23.2941H23.2942M6.4707 27.1765H16.8236M6.4707 31.0588H20.706" stroke="white" stroke-linecap="round" stroke-linejoin="round"/>
</svg>