<svg xmlns="http://www.w3.org/2000/svg" width="30" height="30" viewBox="0 0 30 30" fill="none">
  <path d="M20 15C20 17.7614 17.7614 20 15 20C12.2386 20 10 17.7614 10 15C10 12.2386 12.2386 10 15 10C17.7614 10 20 12.2386 20 15ZM20 15C20 13.0474 20 10 20 10M20 15C20 18.75 21.2187 18.75 23.125 18.75C25.0313 18.75 26.25 16.875 26.25 15C26.25 8.7868 21.2132 3.75 15 3.75C8.7868 3.75 3.75 8.7868 3.75 15C3.75 21.2132 8.7868 26.25 15 26.25" stroke="#2B6364" stroke-linecap="round" stroke-linejoin="round"/>
</svg>