<svg xmlns="http://www.w3.org/2000/svg" width="34" height="35" viewBox="0 0 34 35" fill="none">
  <path d="M17.0383 17.1324L17.985 11.7168C18.1101 11.001 17.1392 10.6108 16.689 11.196L11.3761 18.1032C11.0259 18.5584 11.3669 19.1999 11.959 19.1999H15.4493C15.9003 19.1999 16.2411 19.5893 16.1605 20.0123L15.3815 24.0966C15.2473 24.8007 16.1883 25.2092 16.6572 24.6504L22.6045 17.5629C22.9831 17.1117 22.6462 16.4432 22.04 16.4432H19.9297M24.7144 11.3236C26.0706 13.0154 26.8819 15.163 26.8819 17.5C26.8819 22.9579 22.4574 27.3824 16.9995 27.3824C15.593 27.3824 14.255 27.0885 13.0438 26.5589M21.529 8.71447C20.1721 8.01352 18.632 7.61768 16.9995 7.61768C11.5417 7.61768 7.11719 12.0422 7.11719 17.5C7.11719 20.2351 8.22832 22.7107 10.0238 24.5" stroke="#2B6364" stroke-linecap="round"/>
  <path d="M17 31.5C9.26801 31.5 3 25.232 3 17.5C3 14.7408 3.79821 12.168 5.1763 10M17 3.5C18.8399 3.5 20.5968 3.85491 22.2062 4.5C27.3601 6.5659 31 11.6079 31 17.5C31 22.682 28.1846 27.2064 24 29.627" stroke="#2B6364" stroke-linecap="round"/>
</svg>