<svg xmlns="http://www.w3.org/2000/svg" width="34" height="35" viewBox="0 0 34 35" fill="none">
  <path d="M2.5 9.5C2.5 9.77614 2.72386 10 3 10C3.27614 10 3.5 9.77614 3.5 9.5H2.5ZM3.5 14.5C3.5 14.2239 3.27614 14 3 14C2.72386 14 2.5 14.2239 2.5 14.5H3.5ZM19.9608 11.8749C20.1678 12.0576 20.4838 12.0379 20.6665 11.8309C20.8493 11.6238 20.8296 11.3079 20.6225 11.1251L19.9608 11.8749ZM22.882 14.3124C22.7783 14.0564 22.4868 13.9329 22.2309 14.0365C21.9749 14.1401 21.8514 14.4316 21.955 14.6876L22.882 14.3124ZM20.0201 13.8181C20.291 13.7646 20.4672 13.5015 20.4136 13.2306C20.36 12.9597 20.097 12.7836 19.8261 12.8371L20.0201 13.8181ZM21.5756 22.0577L21.9863 22.3429L21.5756 22.0577ZM8.42439 22.0577L8.01371 22.3429L8.42439 22.0577ZM27.5 25.5C27.5 25.2239 27.2761 25 27 25C26.7239 25 26.5 25.2239 26.5 25.5H27.5ZM26.7 20.1C26.4791 20.2657 26.4343 20.5791 26.6 20.8C26.7657 21.0209 27.0791 21.0657 27.3 20.9L26.7 20.1ZM27 14.5H26.5V14.75L26.7 14.9L27 14.5ZM31 17.5L31.3 17.9C31.4259 17.8056 31.5 17.6574 31.5 17.5C31.5 17.3426 31.4259 17.1944 31.3 17.1L31 17.5ZM5 7H25V6H5V7ZM2.5 26.5C2.5 27.8807 3.61929 29 5 29V28C4.17157 28 3.5 27.3284 3.5 26.5H2.5ZM26.5 26.5C26.5 27.3284 25.8284 28 25 28V29C26.3807 29 27.5 27.8807 27.5 26.5H26.5ZM25 7C25.8284 7 26.5 7.67157 26.5 8.5H27.5C27.5 7.11929 26.3807 6 25 6V7ZM5 6C3.61929 6 2.5 7.11929 2.5 8.5H3.5C3.5 7.67157 4.17157 7 5 7V6ZM3.5 9.5V8.5H2.5V9.5H3.5ZM3.5 26.5V14.5H2.5V26.5H3.5ZM14.5 9.5V17.5H15.5V9.5H14.5ZM23 17H18.9676V18H23V17ZM18.9676 17H15V18H18.9676V17ZM13.1349 10.2336C13.7307 10.0812 14.3555 10 15 10V9C14.2712 9 13.5631 9.09184 12.887 9.26482L13.1349 10.2336ZM15 10C15.6445 10 16.2693 10.0812 16.8651 10.2336L17.113 9.26483C16.4369 9.09184 15.7288 9 15 9V10ZM15 25C14.026 25 13.0966 24.8146 12.2442 24.4776L11.8765 25.4076C12.8441 25.7901 13.8981 26 15 26V25ZM17.7558 24.4776C16.9034 24.8146 15.974 25 15 25V26C16.1019 26 17.1559 25.7901 18.1235 25.4076L17.7558 24.4776ZM16.8651 10.2336C18.0297 10.5316 19.0857 11.1025 19.9608 11.8749L20.6225 11.1251C19.6316 10.2506 18.4346 9.60297 17.113 9.26482L16.8651 10.2336ZM21.955 14.6876C22.3063 15.5554 22.5 16.5045 22.5 17.5H23.5C23.5 16.3737 23.2807 15.2974 22.882 14.3124L21.955 14.6876ZM7 18H11.0246V17H7V18ZM15.5 25.5V17.5H14.5V25.5H15.5ZM11.0246 18H15V17H11.0246V18ZM12.5337 24.7816C11.7426 22.4552 11.403 19.9802 11.524 17.5246L10.5252 17.4754C10.3982 20.0548 10.7546 22.6558 11.587 25.1036L12.5337 24.7816ZM18.4682 17.5251C18.5911 19.9754 18.2599 22.448 17.4663 24.7816L18.413 25.1036C19.2485 22.6469 19.596 20.0478 19.4669 17.4749L18.4682 17.5251ZM11.524 17.5246C11.6569 14.8245 12.3389 12.2695 13.4604 9.96827L12.5615 9.53017C11.382 11.9504 10.6649 14.6374 10.5252 17.4754L11.524 17.5246ZM15 13.3077C12.7696 13.3077 10.6088 13.0125 8.55437 12.4595L8.29442 13.4251C10.4329 14.0008 12.681 14.3077 15 14.3077V13.3077ZM7.5 17.5C7.5 15.9115 7.99331 14.4396 8.83508 13.2275L8.01371 12.6571C7.05939 14.0313 6.5 15.7011 6.5 17.5H7.5ZM8.83508 13.2275C9.84869 11.7678 11.3666 10.686 13.1349 10.2336L12.887 9.26482C10.8805 9.77822 9.16117 11.0047 8.01371 12.6571L8.83508 13.2275ZM18.3178 13.0871C17.2328 13.2326 16.1253 13.3077 15 13.3077V14.3077C16.1699 14.3077 17.3218 14.2296 18.4507 14.0782L18.3178 13.0871ZM16.5396 9.96827C17.1226 11.1645 17.5764 12.4184 17.8993 13.7044L18.8692 13.4609C18.5298 12.1092 18.0525 10.79 17.4385 9.53017L16.5396 9.96827ZM17.8993 13.7044C18.2134 14.9556 18.4036 16.237 18.4682 17.5251L19.4669 17.4749C19.399 16.1221 19.1994 14.7759 18.8692 13.4609L17.8993 13.7044ZM19.8261 12.8371C19.3285 12.9356 18.8256 13.019 18.3178 13.0871L18.4507 14.0782C18.979 14.0074 19.5023 13.9205 20.0201 13.8181L19.8261 12.8371ZM15 21.6923C17.2304 21.6923 19.3912 21.9875 21.4456 22.5405L21.7056 21.5749C19.5671 20.9992 17.319 20.6923 15 20.6923V21.6923ZM22.5 17.5C22.5 19.0885 22.0067 20.5604 21.1649 21.7725L21.9863 22.3429C22.9406 20.9687 23.5 19.2989 23.5 17.5H22.5ZM21.1649 21.7725C20.3261 22.9804 19.1417 23.9298 17.7558 24.4776L18.1235 25.4076C19.6952 24.7863 21.0365 23.7106 21.9863 22.3429L21.1649 21.7725ZM8.55437 22.5405C10.6088 21.9875 12.7696 21.6923 15 21.6923V20.6923C12.681 20.6923 10.4329 20.9992 8.29442 21.5749L8.55437 22.5405ZM12.2442 24.4776C10.8583 23.9298 9.67389 22.9804 8.83508 21.7725L8.01371 22.3429C8.96348 23.7106 10.3048 24.7863 11.8765 25.4076L12.2442 24.4776ZM8.83508 21.7725C7.99331 20.5604 7.5 19.0885 7.5 17.5H6.5C6.5 19.2989 7.05939 20.9687 8.01371 22.3429L8.83508 21.7725ZM26.5 25.5V26.5H27.5V25.5H26.5ZM25 28H5V29H25V28ZM26.5 8.5V14.5H27.5V8.5H26.5ZM26.7 14.9L30.7 17.9L31.3 17.1L27.3 14.1L26.7 14.9ZM30.7 17.1L26.7 20.1L27.3 20.9L31.3 17.9L30.7 17.1Z" fill="#2B6364"/>
</svg>