<svg xmlns="http://www.w3.org/2000/svg" width="159" height="43" viewBox="0 0 159 43" fill="none">
  <path d="M67 2.9078V0H72V2.9078H67Z" fill="white"/>
  <path fill-rule="evenodd" clip-rule="evenodd" d="M35 24.2316V3.87706H54C56.9618 3.87706 58 4.84632 58 7.75412V13.5697C58 16.4775 57 17.4468 54 17.4468H43V24.2316H35ZM43 8.7234V13.5697H49C49.704 13.5697 50 13.2828 50 12.6005V9.69266C50 9.20803 49.5523 8.7234 49 8.7234H43Z" fill="white"/>
  <path fill-rule="evenodd" clip-rule="evenodd" d="M61 20.3546V7.75412C61 4.84632 62 3.87706 65 3.87706H81C84 3.87706 85 4.84632 85 7.75412V20.3546C85 23.2624 84 24.2316 81 24.2316H65C62 24.2316 61 23.2624 61 20.3546ZM69 18.9007C69 19.436 69.4477 19.8699 70 19.8699H76C76.5523 19.8699 77 19.436 77 18.9007V9.20803C77 8.72815 76.4951 8.23876 76 8.23876H70C69.4477 8.23876 69 8.55539 69 9.20803V18.9007Z" fill="white"/>
  <path d="M88 7.75412C88 4.84632 89 3.87706 92 3.87706H109V7.75412H96V10.6619H105C108 10.6619 109 11.6312 109 14.539V20.3546C109 23.2624 108 24.2316 105 24.2316H88.5V20.8392H101.5V17.4468H92C89 17.4468 88 16.4775 88 13.5697V7.75412Z" fill="white"/>
  <path d="M113 7.75412C113 4.84632 114 3.87706 117 3.87706H134V7.75412H121V10.6619H130C133 10.6619 134 11.6312 134 14.539V20.3546C134 23.2624 133 24.2316 130 24.2316H113V20.8392H126V17.4468H117C114 17.4468 113 16.4775 113 13.5697V7.75412Z" fill="white"/>
  <path d="M137 4.36169V24.2316H159V19.8699H145.5V4.36169H137Z" fill="white"/>
  <path d="M74 0V2.9078H79V0H74Z" fill="white"/>
  <path d="M91.8187 35.297L93.3484 33.8384C92.3539 32.6499 90.8731 32 89.0388 32C86.7883 32 84.6852 33.1876 83.7879 35.297C83.2248 36.668 83.2248 38.332 83.7879 39.703C84.6853 41.8126 86.739 43 88.9947 43C90.4586 43 91.9945 42.5538 93.1572 41.6478V37.3329H90.9804V40.4518C90.3907 40.7686 89.7734 40.9033 89.1271 40.9033C87.7432 40.9033 86.5444 40.1647 86.0236 38.8674C85.699 38.0082 85.699 36.9767 86.0236 36.1174C86.546 34.8161 87.7769 34.0967 89.1565 34.0967C90.1915 34.0967 91.0703 34.4832 91.8187 35.297Z" fill="white"/>
  <path d="M41.9277 32.1823H44.5752L40.3126 36.9208L44.8252 42.8177H42.0453L38.7477 38.6453L37.3681 40.133V42.8177H35V32.1823H37.3681V37.1453L41.9277 32.1823Z" fill="white"/>
  <path d="M57.9244 32.1823H59.8954L65.0139 38.6346V32.1823H67.3672V42.8177H65.411L60.2778 36.3625V42.8177H57.9244V32.1823Z" fill="white"/>
  <path d="M76.9515 38.9434V36.9682H72.186V34.1575H77.584V32.1823H69.8032V42.8177H72.186V38.9434H76.9515Z" fill="white"/>
  <path d="M79.1971 32.1823H81.5798V42.8177H79.1971V32.1823Z" fill="white"/>
  <path d="M95.2823 38.1381V32.1823H97.6651V38.047C97.6651 39.5573 98.274 40.9033 99.9596 40.9033C101.645 40.9033 102.254 39.5573 102.254 38.047V32.1823H104.607V38.1381C104.607 40.9841 102.854 43 99.9449 43C97.0358 43 95.2823 40.9841 95.2823 38.1381Z" fill="white"/>
  <path fill-rule="evenodd" clip-rule="evenodd" d="M106.962 42.8177H109.345V39.855C109.581 39.855 109.817 39.8559 110.054 39.8569C110.546 39.8589 111.039 39.8609 111.531 39.8542L113.507 42.8177H116.081L113.781 39.4083L113.801 39.3992C115.153 38.7832 115.89 37.5102 115.89 36.0414C115.89 33.4954 113.778 32.1823 111.419 32.1823H106.962V42.8177ZM109.345 34.1878H111.286C112.757 34.1878 113.478 34.8665 113.478 36.0414C113.478 37.3299 112.468 37.895 111.286 37.895H109.345V34.1878Z" fill="white"/>
  <path fill-rule="evenodd" clip-rule="evenodd" d="M121.014 32.1823H123.367L127.971 42.8177H125.47L124.557 40.5387H119.784L118.866 42.8177H116.425L121.014 32.1823ZM120.536 38.6699H123.807L122.175 34.5996L120.536 38.6699Z" fill="white"/>
  <path d="M130.655 34.1878V42.8177H133.037V34.1878H136.332V32.1823H127.36V34.1878H130.655Z" fill="white"/>
  <path fill-rule="evenodd" clip-rule="evenodd" d="M149.881 32.1823H154.337C156.697 32.1823 158.809 33.4954 158.809 36.0414C158.809 37.5157 158.063 38.8 156.7 39.4084L159 42.8177H156.426L154.449 39.8542C153.957 39.8609 153.465 39.8589 152.973 39.8569C152.736 39.8559 152.5 39.855 152.264 39.855V42.8177H149.881V32.1823ZM152.264 37.895H154.205C155.386 37.895 156.397 37.3299 156.397 36.0414C156.397 34.8665 155.676 34.1878 154.205 34.1878H152.264V37.895Z" fill="white"/>
  <path fill-rule="evenodd" clip-rule="evenodd" d="M50.5004 32C47.3928 32 44.867 34.3559 44.867 37.5C44.867 40.6659 47.3932 43 50.5151 43C53.6127 43 56.1337 40.6336 56.1337 37.5C56.1337 34.365 53.593 32 50.5004 32ZM47.2793 37.5C47.2793 35.6521 48.5956 34.0967 50.5004 34.0967C52.4011 34.0967 53.7216 35.6512 53.7216 37.5C53.7216 39.3436 52.3981 40.9033 50.5004 40.9033C48.588 40.9033 47.2793 39.3561 47.2793 37.5Z" fill="white"/>
  <path fill-rule="evenodd" clip-rule="evenodd" d="M142.471 43C139.35 43 136.823 40.6659 136.823 37.5C136.823 34.3559 139.349 32 142.457 32C145.549 32 148.09 34.365 148.09 37.5C148.09 40.6336 145.569 43 142.471 43ZM142.457 40.9033C140.544 40.9033 139.236 39.3561 139.236 37.5C139.236 35.6521 140.552 34.0967 142.457 34.0967C144.357 34.0967 145.678 35.6512 145.678 37.5C145.678 39.3436 144.354 40.9033 142.457 40.9033Z" fill="white"/>
  <path d="M32 24V4C22.2915 17.2683 6.62145 21.8862 0 22.5366V24H32Z" fill="#213584"/>
</svg>