<svg xmlns="http://www.w3.org/2000/svg" width="30" height="31" viewBox="0 0 30 31" fill="none">
  <path d="M17.8446 12.6429C17.1156 11.7661 16.0562 11.2143 14.8771 11.2143C12.6783 11.2143 10.8958 13.1331 10.8958 15.5C10.8958 17.8669 12.6783 19.7857 14.8771 19.7857C16.0562 19.7857 17.1156 19.2339 17.8446 18.3572M9.69142 14.25H14.9998M9.69142 16.75H14.9998" stroke="#2B6364" stroke-linecap="round"/>
  <path d="M15.0004 27.853C8.17806 27.853 2.64746 22.3224 2.64746 15.5C2.64746 13.0654 3.35176 10.7953 4.56773 8.88236M15.0004 3.14706C16.6238 3.14706 18.1741 3.46022 19.5941 4.02942C21.4967 4.79204 23.1654 6.0143 24.463 7.55883C26.2669 9.70607 27.3533 12.4762 27.3533 15.5C27.3533 20.0723 24.8692 24.0645 21.1769 26.2003" stroke="#2B6364" stroke-linecap="round"/>
</svg>