<svg xmlns="http://www.w3.org/2000/svg" width="30" height="30" viewBox="0 0 30 30" fill="none">
  <path d="M7.94095 15L10.2939 15L11.4704 15L12.6468 15L17.3527 15M22.0586 15L19.7057 15M14.9998 22.0588L14.9998 20.4902L14.9998 19.3137L14.9998 18.1372L14.9998 7.94116" stroke="white" stroke-linecap="round" stroke-linejoin="round"/>
  <path d="M15.0004 27.3529C8.17806 27.3529 2.64746 21.8223 2.64746 15C2.64746 12.5654 3.35176 10.2953 4.56773 8.38233M15.0004 2.64703C16.6238 2.64703 18.1741 2.96019 19.5941 3.52939C24.1416 5.35224 27.3533 9.80104 27.3533 15C27.3533 19.5723 24.8692 23.5644 21.1769 25.7003" stroke="white" stroke-linecap="round"/>
</svg>