<svg xmlns="http://www.w3.org/2000/svg" width="30" height="30" viewBox="0 0 30 30" fill="none">
  <path d="M5 20.159L5.48979 20.2595C5.51278 20.1475 5.49668 20.031 5.44416 19.9294L5 20.159ZM3.75 26.25L3.26021 26.1495C3.2244 26.324 3.28413 26.5044 3.41701 26.623C3.54989 26.7416 3.73585 26.7806 3.90519 26.7253L3.75 26.25ZM9.01852 24.5298L9.28473 24.1066C9.15897 24.0275 9.00455 24.0084 8.86333 24.0545L9.01852 24.5298ZM25.75 15C25.75 20.9371 20.9371 25.75 15 25.75V26.75C21.4893 26.75 26.75 21.4893 26.75 15H25.75ZM4.25 15C4.25 9.06294 9.06294 4.25 15 4.25V3.25C8.51065 3.25 3.25 8.51065 3.25 15H4.25ZM15 4.25C20.9371 4.25 25.75 9.06294 25.75 15H26.75C26.75 8.51065 21.4893 3.25 15 3.25V4.25ZM5.44416 19.9294C4.68115 18.4534 4.25 16.7778 4.25 15H3.25C3.25 16.9413 3.72117 18.774 4.55584 20.3886L5.44416 19.9294ZM4.51021 20.0585L3.26021 26.1495L4.23979 26.3505L5.48979 20.2595L4.51021 20.0585ZM15 25.75C12.8989 25.75 10.94 25.1477 9.28473 24.1066L8.75231 24.9531C10.5624 26.0916 12.705 26.75 15 26.75V25.75ZM3.90519 26.7253L9.1737 25.0051L8.86333 24.0545L3.59481 25.7747L3.90519 26.7253Z" fill="#2B6364"/>
  <path d="M21.7351 17.6286L21.6793 17.4055L21.4736 17.3027L20.9736 17.0527C20.8425 16.9871 20.3752 16.769 19.9181 16.5557L19.8989 16.5468C19.4246 16.3254 18.9657 16.1112 18.8486 16.0527C18.6659 15.9613 18.4401 15.8941 18.188 15.9256C17.9304 15.9578 17.7076 16.0852 17.5214 16.2713C17.3707 16.422 17.1672 16.6935 16.9957 16.9222C16.9888 16.9315 16.9819 16.9407 16.975 16.9499C16.7756 17.2157 16.6146 17.4281 16.5214 17.5213L16.4847 17.5581C16.4811 17.5564 16.4774 17.5546 16.4736 17.5527L16.4605 17.5461L16.447 17.5403C15.6136 17.1832 14.7892 16.7115 14.0874 16.1302C13.5037 15.5444 12.9209 14.8462 12.4507 14.1492C12.4529 14.1427 12.4566 14.1343 12.4623 14.1251C12.4691 14.1138 12.4758 14.1062 12.4786 14.1034C12.5349 14.0471 12.5834 13.9849 12.6163 13.9423C12.6256 13.9304 12.634 13.9194 12.642 13.9089C12.6677 13.8755 12.6884 13.8486 12.7122 13.82C12.7716 13.7488 12.8129 13.7149 12.8486 13.6971L12.9212 13.6608L12.9786 13.6034C13.0905 13.4915 13.1817 13.3483 13.2441 13.2235C13.2785 13.1547 13.3216 13.0572 13.3488 12.9485C13.4355 12.8023 13.4687 12.6405 13.4687 12.4999C13.4687 12.3188 13.4135 12.1024 13.2601 11.9297C13.2564 11.9234 13.2515 11.9149 13.2454 11.9037C13.2221 11.8609 13.1909 11.7988 13.1525 11.7183C13.0762 11.5583 12.9813 11.3459 12.8807 11.1136C12.691 10.6758 12.4871 10.1819 12.3609 9.86818C12.2951 9.44417 12.185 9.10274 11.9629 8.8807C11.7042 8.62198 11.3917 8.624 11.2675 8.6248C11.2612 8.62484 11.2553 8.62488 11.25 8.62488H10.625C10.3665 8.62488 10.1162 8.74179 9.9603 8.82842C9.79134 8.92229 9.62544 9.04234 9.52145 9.14632C8.68399 9.98378 8.25 10.9836 8.25 12.1249V12.1526L8.25306 12.1801C8.38588 13.3755 8.7858 14.5858 9.59375 15.6665C11.008 17.7211 12.8202 19.409 15.0371 20.4523L15.0505 20.4586L15.0643 20.4641C15.1898 20.5143 15.315 20.5669 15.4411 20.6198C15.8848 20.8061 16.3395 20.997 16.8574 21.106C17.5852 21.3857 18.2993 21.3731 19.0766 21.244C20.1388 21.09 20.9956 20.3453 21.541 19.5272L21.5583 19.5013L21.5722 19.4735C21.8896 18.8388 21.8804 18.21 21.7351 17.6286Z" stroke="#2B6364"/>
</svg>