<svg xmlns="http://www.w3.org/2000/svg" width="30" height="31" viewBox="0 0 30 31" fill="none">
  <path d="M21.1766 20.2941C20.9004 20.2941 20.6766 20.518 20.6766 20.7941C20.6766 21.0702 20.9004 21.2941 21.1766 21.2941V20.2941ZM10.9707 7.5588C10.9707 7.83494 11.1946 8.0588 11.4707 8.0588C11.7468 8.0588 11.9707 7.83494 11.9707 7.5588H10.9707ZM24.706 8.22055H25.206C25.206 8.08794 25.1533 7.96076 25.0595 7.86699L24.706 8.22055ZM21.7848 5.29939L22.1384 4.94584V4.94584L21.7848 5.29939ZM21.3972 8.22055H20.8972C20.8972 8.49669 21.121 8.72055 21.3972 8.72055V8.22055ZM21.8972 6.89704C21.8972 6.62089 21.6733 6.39704 21.3972 6.39704C21.121 6.39704 20.8972 6.62089 20.8972 6.89704H21.8972ZM24.1545 20.2941H21.1766V21.2941H24.1545V20.2941ZM24.206 20.2491C24.206 20.2684 24.1885 20.2941 24.1545 20.2941V21.2941C24.7296 21.2941 25.206 20.8318 25.206 20.2491H24.206ZM12.0222 4.41174C11.4471 4.41174 10.9707 4.87404 10.9707 5.45673H11.9707C11.9707 5.43744 11.9882 5.41174 12.0222 5.41174V4.41174ZM11.9707 7.5588V5.45673H10.9707V7.5588H11.9707ZM12.0222 5.41174H20.849V4.41174H12.0222V5.41174ZM21.4313 5.65295L24.3524 8.5741L25.0595 7.86699L22.1384 4.94584L21.4313 5.65295ZM24.706 7.72055H21.3972V8.72055H24.706V7.72055ZM21.8972 8.22055V6.89704H20.8972V8.22055H21.8972ZM20.849 5.41174C21.0674 5.41174 21.2768 5.49851 21.4313 5.65295L22.1384 4.94584C21.7964 4.60386 21.3326 4.41174 20.849 4.41174V5.41174ZM25.206 20.2491V8.22055H24.206V20.2491H25.206Z" fill="#2B6364"/>
  <path d="M4.79395 19.808C4.79395 20.0842 5.0178 20.308 5.29395 20.308C5.57009 20.308 5.79395 20.0842 5.79395 19.808H4.79395ZM5.79395 23.3504C5.79395 23.0743 5.57009 22.8504 5.29395 22.8504C5.0178 22.8504 4.79395 23.0743 4.79395 23.3504H5.79395ZM18.5292 13.5147H19.0292C19.0292 13.3821 18.9766 13.255 18.8828 13.1612L18.5292 13.5147ZM15.6081 10.5936L15.9616 10.24V10.24L15.6081 10.5936ZM15.2204 13.5147H14.7204C14.7204 13.7909 14.9443 14.0147 15.2204 14.0147V13.5147ZM15.7204 12.1912C15.7204 11.9151 15.4966 11.6912 15.2204 11.6912C14.9443 11.6912 14.7204 11.9151 14.7204 12.1912H15.7204ZM17.9778 25.5883H5.84542V26.5883H17.9778V25.5883ZM5.84542 25.5883C5.81139 25.5883 5.79395 25.5626 5.79395 25.5433H4.79395C4.79395 26.126 5.2703 26.5883 5.84542 26.5883V25.5883ZM18.0292 25.5433C18.0292 25.5626 18.0118 25.5883 17.9778 25.5883V26.5883C18.5529 26.5883 19.0292 26.126 19.0292 25.5433H18.0292ZM5.84542 9.70593C5.2703 9.70593 4.79395 10.1682 4.79395 10.7509H5.79395C5.79395 10.7316 5.81139 10.7059 5.84542 10.7059V9.70593ZM5.79395 19.808V10.7509H4.79395V19.808H5.79395ZM5.79395 25.5433V23.3504H4.79395V25.5433H5.79395ZM5.84542 10.7059H14.6722V9.70593H5.84542V10.7059ZM15.2545 10.9471L18.1757 13.8683L18.8828 13.1612L15.9616 10.24L15.2545 10.9471ZM18.5292 13.0147H15.2204V14.0147H18.5292V13.0147ZM15.7204 13.5147V12.1912H14.7204V13.5147H15.7204ZM14.6722 10.7059C14.8906 10.7059 15.1001 10.7927 15.2545 10.9471L15.9616 10.24C15.6196 9.89805 15.1558 9.70593 14.6722 9.70593V10.7059ZM19.0292 25.5433V13.5147H18.0292V25.5433H19.0292Z" fill="#2B6364"/>
</svg>