<svg xmlns="http://www.w3.org/2000/svg" width="30" height="31" viewBox="0 0 30 31" fill="none">
  <path d="M22.941 9.32351H23.441C23.441 9.1909 23.3883 9.06373 23.2946 8.96996L22.941 9.32351ZM22.441 11.0882C22.441 11.3644 22.6649 11.5882 22.941 11.5882C23.2171 11.5882 23.441 11.3644 23.441 11.0882H22.441ZM19.0461 5.42864L18.6926 5.78219L19.0461 5.42864ZM18.5292 9.32351H18.0292C18.0292 9.59966 18.2531 9.82351 18.5292 9.82351V9.32351ZM19.0292 7.55883C19.0292 7.28269 18.8054 7.05883 18.5292 7.05883C18.2531 7.05883 18.0292 7.28269 18.0292 7.55883H19.0292ZM10.5881 26.5882C10.8642 26.5882 11.0881 26.3644 11.0881 26.0882C11.0881 25.8121 10.8642 25.5882 10.5881 25.5882V26.5882ZM6.02924 25.5882C5.89369 25.5882 5.79395 25.4812 5.79395 25.3616H4.79395C4.79395 26.0446 5.3526 26.5882 6.02924 26.5882V25.5882ZM6.02924 4.41177C5.3526 4.41177 4.79395 4.9554 4.79395 5.63842H5.79395C5.79395 5.51881 5.8937 5.41177 6.02924 5.41177V4.41177ZM6.02924 5.41177H17.7983V4.41177H6.02924V5.41177ZM22.441 9.32351V11.0882H23.441V9.32351H22.441ZM18.6926 5.78219L22.5875 9.67707L23.2946 8.96996L19.3997 5.07509L18.6926 5.78219ZM22.941 8.82351H18.5292V9.82351H22.941V8.82351ZM19.0292 9.32351V7.55883H18.0292V9.32351H19.0292ZM17.7983 5.41177C18.1337 5.41177 18.4554 5.54502 18.6926 5.78219L19.3997 5.07509C18.9749 4.65037 18.3989 4.41177 17.7983 4.41177V5.41177ZM10.5881 25.5882H6.02924V26.5882H10.5881V25.5882ZM5.79395 25.3616V5.63842H4.79395V25.3616H5.79395Z" fill="#2B6364"/>
  <path d="M17.9679 26.2136L18.0803 26.7008C18.1716 26.6798 18.2551 26.6335 18.3214 26.5672L17.9679 26.2136ZM14.8483 23.0941L14.4947 22.7405C14.4284 22.8068 14.3821 22.8903 14.3611 22.9816L14.8483 23.0941ZM13.9124 27.1495L13.4252 27.0371C13.3864 27.2051 13.4369 27.3812 13.5588 27.5031C13.6807 27.625 13.8568 27.6755 14.0248 27.6367L13.9124 27.1495ZM21.3578 15.8774C21.1625 16.0727 21.1625 16.3893 21.3578 16.5845C21.5531 16.7798 21.8697 16.7798 22.0649 16.5845L21.3578 15.8774ZM23.6247 17.4372C23.4294 17.2419 23.1129 17.2419 22.9176 17.4372C22.7223 17.6325 22.7223 17.949 22.9176 18.1443L23.6247 17.4372ZM20.1932 18.4563C20.3884 18.261 20.3884 17.9444 20.1932 17.7492C19.9979 17.5539 19.6813 17.5539 19.4861 17.7492L20.1932 18.4563ZM16.0545 25.0074C16.2498 25.2027 16.5664 25.2027 16.7616 25.0074C16.9569 24.8121 16.9569 24.4956 16.7616 24.3003L16.0545 25.0074ZM25.2677 15.5031L25.5589 15.7942L26.266 15.0871L25.9748 14.796L25.2677 15.5031ZM17.8554 25.7264L13.8 26.6623L14.0248 27.6367L18.0803 26.7008L17.8554 25.7264ZM14.3996 27.262L15.3355 23.2065L14.3611 22.9816L13.4252 27.0371L14.3996 27.262ZM22.0649 16.5845L23.1464 15.5031L22.4393 14.796L21.3578 15.8774L22.0649 16.5845ZM25.5589 17.9155L24.4774 18.997L25.1845 19.7041L26.266 18.6226L25.5589 17.9155ZM24.4774 18.997L17.6143 25.8601L18.3214 26.5672L25.1845 19.7041L24.4774 18.997ZM25.1845 18.997L23.6247 17.4372L22.9176 18.1443L24.4774 19.7041L25.1845 18.997ZM15.2018 23.4476L20.1932 18.4563L19.4861 17.7492L14.4947 22.7405L15.2018 23.4476ZM14.4947 23.4476L16.0545 25.0074L16.7616 24.3003L15.2018 22.7405L14.4947 23.4476ZM25.5589 15.7942C26.1446 16.38 26.1446 17.3298 25.5589 17.9155L26.266 18.6226C27.2423 17.6463 27.2423 16.0634 26.266 15.0871L25.5589 15.7942ZM25.9748 14.796C24.9985 13.8196 23.4156 13.8196 22.4393 14.796L23.1464 15.5031C23.7322 14.9173 24.6819 14.9173 25.2677 15.5031L25.9748 14.796Z" fill="#2B6364"/>
</svg>