<svg xmlns="http://www.w3.org/2000/svg" width="34" height="35" viewBox="0 0 34 35" fill="none">
  <path d="M26.6999 15.8C26.6999 16.0761 26.9237 16.3 27.1999 16.3C27.476 16.3 27.6999 16.0761 27.6999 15.8H26.6999ZM6.86654 15.8C6.86654 16.0761 7.09039 16.3 7.36654 16.3C7.64268 16.3 7.86654 16.0761 7.86654 15.8H6.86654ZM4.0332 29.4C4.0332 29.6761 4.25706 29.9 4.5332 29.9C4.80935 29.9 5.0332 29.6761 5.0332 29.4H4.0332ZM29.5332 29.4C29.5332 29.6761 29.7571 29.9 30.0332 29.9C30.3093 29.9 30.5332 29.6761 30.5332 29.4H29.5332ZM30.5332 25.4333C30.5332 25.1572 30.3093 24.9333 30.0332 24.9333C29.7571 24.9333 29.5332 25.1572 29.5332 25.4333H30.5332ZM29.5332 22.6C29.5332 22.8761 29.7571 23.1 30.0332 23.1C30.3093 23.1 30.5332 22.8761 30.5332 22.6H29.5332ZM14.1665 12.9C14.4427 12.9 14.6665 12.6761 14.6665 12.4C14.6665 12.1238 14.4427 11.9 14.1665 11.9V12.9ZM15.7249 11.9C15.4487 11.9 15.2249 12.1238 15.2249 12.4C15.2249 12.6761 15.4487 12.9 15.7249 12.9V11.9ZM7.86654 15.8V9.56664H6.86654V15.8H7.86654ZM17.2832 6.09998H23.2332V5.09998H17.2832V6.09998ZM11.3332 6.09998H12.3249V5.09998H11.3332V6.09998ZM27.6999 9.56664C27.6999 7.09977 25.7001 5.09998 23.2332 5.09998V6.09998C25.1478 6.09998 26.6999 7.65206 26.6999 9.56664H27.6999ZM7.86654 9.56664C7.86654 7.65206 9.41862 6.09998 11.3332 6.09998V5.09998C8.86633 5.09998 6.86654 7.09977 6.86654 9.56664H7.86654ZM5.0332 29.4V26.85H4.0332V29.4H5.0332ZM5.0332 26.85V21.4666H4.0332V26.85H5.0332ZM29.5332 27.1333V29.4H30.5332V27.1333H29.5332ZM4.52765 27.3499L30.0276 27.6333L30.0388 26.6333L4.53876 26.35L4.52765 27.3499ZM29.5332 25.4333V27.1333H30.5332V25.4333H29.5332ZM29.5332 21.4666V22.6H30.5332V21.4666H29.5332ZM26.0665 18C27.9811 18 29.5332 19.5521 29.5332 21.4666H30.5332C30.5332 18.9998 28.5334 17 26.0665 17V18ZM8.49987 17C6.033 17 4.0332 18.9998 4.0332 21.4666H5.0332C5.0332 19.5521 6.58528 18 8.49987 18V17ZM22.1665 14.6666V15.2333H23.1665V14.6666H22.1665ZM12.3999 15.2333V14.6666H11.3999V15.2333H12.3999ZM14.1665 17C13.1908 17 12.3999 16.209 12.3999 15.2333H11.3999C11.3999 16.7613 12.6385 18 14.1665 18V17ZM22.1665 15.2333C22.1665 16.209 21.3756 17 20.3999 17V18C21.9279 18 23.1665 16.7613 23.1665 15.2333H22.1665ZM20.3999 12.9C21.3756 12.9 22.1665 13.6909 22.1665 14.6666H23.1665C23.1665 13.1387 21.9279 11.9 20.3999 11.9V12.9ZM14.1665 11.9C12.6385 11.9 11.3999 13.1387 11.3999 14.6666H12.3999C12.3999 13.6909 13.1908 12.9 14.1665 12.9V11.9ZM8.49987 18H14.1665V17H8.49987V18ZM14.1665 18H20.3999V17H14.1665V18ZM20.3999 18H26.0665V17H20.3999V18ZM26.6999 9.56664V15.8H27.6999V9.56664H26.6999ZM15.7249 12.9H20.3999V11.9H15.7249V12.9Z" fill="#2B6364"/>
</svg>