<svg xmlns="http://www.w3.org/2000/svg" width="34" height="35" viewBox="0 0 34 35" fill="none">
  <path d="M19.8982 6.80004C19.6221 6.80004 19.3982 7.0239 19.3982 7.30004C19.3982 7.57618 19.6221 7.80004 19.8982 7.80004V6.80004ZM17.9149 7.80004C18.1911 7.80004 18.4149 7.57618 18.4149 7.30004C18.4149 7.0239 18.1911 6.80004 17.9149 6.80004V7.80004ZM8.92588 11.6217C8.83742 11.8833 8.97778 12.1671 9.23937 12.2555C9.50096 12.344 9.78473 12.2036 9.87319 11.942L8.92588 11.6217ZM22.0945 9.00004L22.1489 8.50302L22.1218 8.50004H22.0945V9.00004ZM25.7619 11.7819L26.2356 11.6217V11.6217L25.7619 11.7819ZM9.03789 14.9647C9.10576 14.6971 8.94379 14.4251 8.67612 14.3572C8.40845 14.2893 8.13644 14.4513 8.06857 14.719L9.03789 14.9647ZM6.58149 29.9668L6.24234 30.3342L6.58149 29.9668ZM9.98158 26.2834L9.55494 26.5441L9.74963 26.8627L10.1104 26.7665L9.98158 26.2834ZM27.7664 29.9668L28.0864 30.3509L28.0962 30.3428L28.1055 30.3342L27.7664 29.9668ZM24.3663 26.2834L24.1729 26.7445L24.569 26.9106L24.7929 26.5441L24.3663 26.2834ZM13.3064 12.2078C13.3567 11.9362 13.1774 11.6753 12.9058 11.6251C12.6343 11.5748 12.3734 11.7541 12.3232 12.0257L13.3064 12.2078ZM11.4682 24.6418C11.5005 24.916 11.749 25.1122 12.0232 25.0799C12.2975 25.0477 12.4936 24.7992 12.4614 24.525L11.4682 24.6418ZM22.5255 12.0257C22.4752 11.7541 22.2144 11.5748 21.9428 11.6251C21.6713 11.6753 21.4919 11.9362 21.5422 12.2078L22.5255 12.0257ZM22.3873 24.525C22.355 24.7992 22.5512 25.0477 22.8255 25.0799C23.0997 25.1122 23.3482 24.916 23.3804 24.6418L22.3873 24.525ZM17.1739 31.6668L17.1739 32.1668L17.1739 31.6668ZM7.80149 31.4063C8.0547 31.5165 8.34928 31.4005 8.45946 31.1473C8.56963 30.8941 8.45367 30.5995 8.20046 30.4894L7.80149 31.4063ZM10.5309 30.9856C10.2561 30.9591 10.0118 31.1604 9.98525 31.4353C9.95875 31.7101 10.1601 31.9545 10.435 31.981L10.5309 30.9856ZM14.5149 3.83337H20.1816V2.83337H14.5149V3.83337ZM21.9482 5.60004V6.16671H22.9482V5.60004H21.9482ZM12.7482 6.16671V5.60004H11.7482V6.16671H12.7482ZM21.3149 6.80004H19.8982V7.80004H21.3149V6.80004ZM17.9149 6.80004H14.7982V7.80004H17.9149V6.80004ZM14.7982 6.80004H13.3816V7.80004H14.7982V6.80004ZM14.2982 7.30004V9.00004H15.2982V7.30004H14.2982ZM11.7482 6.16671C11.7482 7.06877 12.4795 7.80004 13.3816 7.80004V6.80004C13.0318 6.80004 12.7482 6.51649 12.7482 6.16671H11.7482ZM21.9482 6.16671C21.9482 6.51649 21.6647 6.80004 21.3149 6.80004V7.80004C22.217 7.80004 22.9482 7.06877 22.9482 6.16671H21.9482ZM20.1816 3.83337C21.1573 3.83337 21.9482 4.62434 21.9482 5.60004H22.9482C22.9482 4.07205 21.7096 2.83337 20.1816 2.83337V3.83337ZM14.5149 2.83337C12.9869 2.83337 11.7482 4.07205 11.7482 5.60004H12.7482C12.7482 4.62434 13.5392 3.83337 14.5149 3.83337V2.83337ZM9.87319 11.942C9.99934 11.569 10.2755 10.9544 10.8114 10.4381C11.3356 9.93313 12.1294 9.50004 13.3491 9.50004V8.50004C11.8605 8.50004 10.8207 9.04059 10.1176 9.71792C9.42641 10.3839 9.08194 11.1602 8.92588 11.6217L9.87319 11.942ZM22.04 9.49707C22.396 9.53607 23.0741 9.70934 23.7355 10.104C24.391 10.4952 24.9981 11.0836 25.2883 11.942L26.2356 11.6217C25.8487 10.4772 25.0452 9.72106 24.2479 9.24527C23.4564 8.77293 22.6393 8.55674 22.1489 8.50302L22.04 9.49707ZM25.2883 11.942C25.7122 13.1962 26.3366 15.0451 26.7174 16.9564C27.1018 18.8861 27.2172 20.7865 26.7034 22.1798L27.6416 22.5258C28.2562 20.8591 28.0895 18.7258 27.6981 16.761C27.303 14.7777 26.658 12.8712 26.2356 11.6217L25.2883 11.942ZM8.06857 14.719C7.79152 15.8116 7.42527 17.0413 7.27964 18.5851C7.13312 20.1384 7.20868 22.0017 7.78475 24.4161L8.75744 24.184C8.20516 21.8693 8.13965 20.1162 8.27522 18.679C8.41168 17.2324 8.75067 16.0975 9.03789 14.9647L8.06857 14.719ZM13.3491 9.50004H14.7982V8.50004H13.3491V9.50004ZM14.7982 9.50004H22.0945V8.50004H14.7982V9.50004ZM6.92064 29.5994C5.24835 28.0557 5.38548 26.1564 6.11961 25.2528C6.4799 24.8094 6.9714 24.6034 7.51391 24.7183C8.07984 24.8382 8.81387 25.3314 9.55494 26.5441L10.4082 26.0227C9.59093 24.6853 8.66036 23.9389 7.72108 23.74C6.75837 23.5362 5.90403 23.9323 5.34349 24.6222C4.23595 25.9854 4.23139 28.4778 6.24234 30.3342L6.92064 29.5994ZM28.1055 30.3342C30.1165 28.4778 30.1119 25.9854 29.0044 24.6222C28.4438 23.9323 27.5895 23.5362 26.6268 23.74C25.6875 23.9389 24.7569 24.6853 23.9396 26.0227L24.7929 26.5441C25.534 25.3314 26.268 24.8382 26.8339 24.7183C27.3765 24.6034 27.868 24.8094 28.2282 25.2528C28.9624 26.1564 29.0995 28.0557 27.4272 29.5994L28.1055 30.3342ZM10.1104 26.7665C11.4877 26.3992 14.7875 25.6792 17.2042 25.6509L17.1925 24.651C14.6489 24.6807 11.2524 25.427 9.85275 25.8003L10.1104 26.7665ZM24.5596 25.8223C23.8292 25.516 22.6111 25.2182 21.2867 25.0004C19.954 24.7813 18.4696 24.636 17.1925 24.651L17.2042 25.6509C18.4072 25.6368 19.8311 25.7745 21.1245 25.9871C22.4262 26.2012 23.552 26.4841 24.1729 26.7445L24.5596 25.8223ZM12.3232 12.0257C11.8502 14.5796 11.0054 20.7075 11.4682 24.6418L12.4614 24.525C12.0176 20.7526 12.8349 14.7538 13.3064 12.2078L12.3232 12.0257ZM21.5422 12.2078C22.0137 14.7538 22.8311 20.7526 22.3873 24.525L23.3804 24.6418C23.8433 20.7075 22.9985 14.5796 22.5255 12.0257L21.5422 12.2078ZM27.4463 29.5827C27.0289 29.9305 26.6917 30.1845 26.2986 30.3842C25.9086 30.5824 25.4416 30.7377 24.7631 30.8553C23.3833 31.0945 21.206 31.1667 17.1739 31.1668L17.1739 32.1668C21.1842 32.1667 23.453 32.0973 24.9339 31.8406C25.6857 31.7103 26.2527 31.5292 26.7515 31.2758C27.2472 31.024 27.6538 30.7114 28.0864 30.3509L27.4463 29.5827ZM8.20046 30.4894C7.71622 30.2787 7.35566 30.001 6.92064 29.5994L6.24234 30.3342C6.71443 30.77 7.17031 31.1317 7.80149 31.4063L8.20046 30.4894ZM17.1739 31.1668C14.0061 31.1668 11.9521 31.1226 10.5309 30.9856L10.435 31.981C11.9106 32.1232 14.0104 32.1668 17.1739 32.1668L17.1739 31.1668Z" fill="#2B6364"/>
</svg>