<svg xmlns="http://www.w3.org/2000/svg" width="34" height="35" viewBox="0 0 34 35" fill="none">
  <path d="M10 10.2324L9.74964 9.79963C9.59514 9.889 9.5 10.054 9.5 10.2324H10ZM10 24.7676H9.5C9.5 24.946 9.59514 25.111 9.74964 25.2004L10 24.7676ZM8 24.7676L8.25036 25.2004C8.40486 25.111 8.5 24.946 8.5 24.7676H8ZM8 10.2324H8.5C8.5 10.054 8.40486 9.889 8.25036 9.79963L8 10.2324ZM26 10.2324L25.7496 9.79963C25.5951 9.889 25.5 10.054 25.5 10.2324H26ZM26 24.7676H25.5C25.5 24.946 25.5951 25.111 25.7496 25.2004L26 24.7676ZM24 24.7676L24.2504 25.2004C24.4049 25.111 24.5 24.946 24.5 24.7676H24ZM24 10.2324H24.5C24.5 10.054 24.4049 9.889 24.2504 9.79963L24 10.2324ZM18 10.2324L17.7496 9.79963C17.5951 9.889 17.5 10.054 17.5 10.2324H18ZM18 24.7676H17.5C17.5 24.946 17.5951 25.111 17.7496 25.2004L18 24.7676ZM16 24.7676L16.2504 25.2004C16.4049 25.111 16.5 24.946 16.5 24.7676H16ZM16 10.2324H16.5C16.5 10.054 16.4049 9.889 16.2504 9.79963L16 10.2324ZM18 13.626H17.5C17.5 13.8542 17.6544 14.0534 17.8754 14.1102L18 13.626ZM16 13.626L16.1246 14.1102C16.3456 14.0534 16.5 13.8542 16.5 13.626H16ZM16 21.374H16.5C16.5 21.1458 16.3456 20.9466 16.1246 20.8898L16 21.374ZM18 21.374L17.8754 20.8898C17.6544 20.9466 17.5 21.1458 17.5 21.374H18ZM10 18.5V18C9.86739 18 9.74022 18.0527 9.64645 18.1464C9.55268 18.2402 9.5 18.3674 9.5 18.5H10ZM13.126 18.5L13.6102 18.3754C13.5534 18.1544 13.3542 18 13.126 18V18.5ZM10 16.5H9.5C9.5 16.7761 9.72386 17 10 17V16.5ZM12.6418 16.3754C12.573 16.6428 12.734 16.9154 13.0014 16.9842C13.2688 17.053 13.5414 16.8921 13.6102 16.6246L12.6418 16.3754ZM20.874 16.5L20.3898 16.6246C20.4466 16.8456 20.6458 17 20.874 17V16.5ZM24 16.5V17C24.2761 17 24.5 16.7761 24.5 16.5H24ZM20.874 18C20.5978 18 20.374 18.2239 20.374 18.5C20.374 18.7761 20.5978 19 20.874 19V18ZM24 18.5H24.5C24.5 18.2239 24.2761 18 24 18V18.5ZM19.9767 20.8749C20.1837 20.6921 20.2034 20.3762 20.0207 20.1691C19.838 19.9621 19.522 19.9424 19.315 20.1251L19.9767 20.8749ZM11 17C11.2761 17 11.5 16.7761 11.5 16.5C11.5 16.2239 11.2761 16 11 16V17ZM25.5 11.5C25.5 11.7761 25.7239 12 26 12C26.2761 12 26.5 11.7761 26.5 11.5H25.5ZM26.5 15.5C26.5 15.2239 26.2761 15 26 15C25.7239 15 25.5 15.2239 25.5 15.5H26.5ZM8.5 24.7676L8.5 10.2324H7.5L7.5 24.7676H8.5ZM7.5 8.5C7.5 7.67157 8.17157 7 9 7V6C7.61929 6 6.5 7.11929 6.5 8.5H7.5ZM9 7C9.82843 7 10.5 7.67157 10.5 8.5H11.5C11.5 7.11929 10.3807 6 9 6V7ZM10.5 26.5C10.5 27.3284 9.82843 28 9 28V29C10.3807 29 11.5 27.8807 11.5 26.5H10.5ZM9 28C8.17157 28 7.5 27.3284 7.5 26.5H6.5C6.5 27.8807 7.61929 29 9 29V28ZM10.5 8.5C10.5 9.05458 10.1993 9.53952 9.74964 9.79963L10.2504 10.6652C10.9963 10.2337 11.5 9.42598 11.5 8.5H10.5ZM8.25036 9.79963C7.80071 9.53952 7.5 9.05458 7.5 8.5H6.5C6.5 9.42598 7.00369 10.2337 7.74964 10.6652L8.25036 9.79963ZM7.5 26.5C7.5 25.9454 7.80071 25.4605 8.25036 25.2004L7.74964 24.3348C7.00369 24.7663 6.5 25.574 6.5 26.5H7.5ZM9.74964 25.2004C10.1993 25.4605 10.5 25.9454 10.5 26.5H11.5C11.5 25.574 10.9963 24.7663 10.2504 24.3348L9.74964 25.2004ZM23.5 8.5C23.5 7.67157 24.1716 7 25 7V6C23.6193 6 22.5 7.11929 22.5 8.5H23.5ZM25 7C25.8284 7 26.5 7.67157 26.5 8.5H27.5C27.5 7.11929 26.3807 6 25 6V7ZM26.5 26.5C26.5 27.3284 25.8284 28 25 28V29C26.3807 29 27.5 27.8807 27.5 26.5H26.5ZM25 28C24.1716 28 23.5 27.3284 23.5 26.5H22.5C22.5 27.8807 23.6193 29 25 29V28ZM26.5 8.5C26.5 9.05458 26.1993 9.53952 25.7496 9.79963L26.2504 10.6652C26.9963 10.2337 27.5 9.42598 27.5 8.5H26.5ZM24.2504 9.79963C23.8007 9.53952 23.5 9.05458 23.5 8.5H22.5C22.5 9.42598 23.0037 10.2337 23.7496 10.6652L24.2504 9.79963ZM23.5 26.5C23.5 25.9454 23.8007 25.4605 24.2504 25.2004L23.7496 24.3348C23.0037 24.7663 22.5 25.574 22.5 26.5H23.5ZM25.7496 25.2004C26.1993 25.4605 26.5 25.9454 26.5 26.5H27.5C27.5 25.574 26.9963 24.7663 26.2504 24.3348L25.7496 25.2004ZM15.5 8.5C15.5 7.67157 16.1716 7 17 7V6C15.6193 6 14.5 7.11929 14.5 8.5H15.5ZM17 7C17.8284 7 18.5 7.67157 18.5 8.5H19.5C19.5 7.11929 18.3807 6 17 6V7ZM18.5 26.5C18.5 27.3284 17.8284 28 17 28V29C18.3807 29 19.5 27.8807 19.5 26.5H18.5ZM17 28C16.1716 28 15.5 27.3284 15.5 26.5H14.5C14.5 27.8807 15.6193 29 17 29V28ZM18.5 8.5C18.5 9.05458 18.1993 9.53952 17.7496 9.79963L18.2504 10.6652C18.9963 10.2337 19.5 9.42598 19.5 8.5H18.5ZM16.2504 9.79963C15.8007 9.53952 15.5 9.05458 15.5 8.5H14.5C14.5 9.42598 15.0037 10.2337 15.7496 10.6652L16.2504 9.79963ZM15.5 26.5C15.5 25.9454 15.8007 25.4605 16.2504 25.2004L15.7496 24.3348C15.0037 24.7663 14.5 25.574 14.5 26.5H15.5ZM17.7496 25.2004C18.1993 25.4605 18.5 25.9454 18.5 26.5H19.5C19.5 25.574 18.9963 24.7663 18.2504 24.3348L17.7496 25.2004ZM17.5 10.2324V13.626H18.5V10.2324H17.5ZM16.5 13.626V10.2324H15.5V13.626H16.5ZM16.5 24.7676V21.374H15.5V24.7676H16.5ZM17.5 21.374L17.5 24.7676H18.5L18.5 21.374H17.5ZM9.5 18.5L9.5 24.7676H10.5L10.5 18.5H9.5ZM16.1246 20.8898C14.8954 20.5734 13.9266 19.6046 13.6102 18.3754L12.6418 18.6246C13.049 20.2067 14.2933 21.451 15.8754 21.8582L16.1246 20.8898ZM10 19H13.126V18H10V19ZM9.5 10.2324L9.5 16.5H10.5L10.5 10.2324H9.5ZM13.6102 16.6246C13.9266 15.3954 14.8954 14.4266 16.1246 14.1102L15.8754 13.1418C14.2933 13.549 13.049 14.7933 12.6418 16.3754L13.6102 16.6246ZM17.8754 14.1102C19.1046 14.4266 20.0734 15.3954 20.3898 16.6246L21.3582 16.3754C20.951 14.7933 19.7067 13.549 18.1246 13.1418L17.8754 14.1102ZM24.5 16.5V10.2324H23.5V16.5H24.5ZM20.874 17H24V16H20.874V17ZM24.5 24.7676V18.5H23.5V24.7676H24.5ZM20.874 19H24V18H20.874V19ZM19.315 20.1251C18.9076 20.4847 18.4165 20.7505 17.8754 20.8898L18.1246 21.8582C18.8222 21.6786 19.4538 21.3363 19.9767 20.8749L19.315 20.1251ZM10 17H11V16H10V17ZM25.5 10.2324V11.5H26.5V10.2324H25.5ZM25.5 15.5V24.7676H26.5V15.5H25.5Z" fill="#2B6364"/>
  <path d="M15.2676 18.5C15.6134 19.0978 16.2597 19.5 17 19.5C18.1046 19.5 19 18.6046 19 17.5C19 16.3954 18.1046 15.5 17 15.5C16.2597 15.5 15.6134 15.9022 15.2676 16.5" stroke="#2B6364" stroke-linecap="round"/>
</svg>